<svg xmlns="http://www.w3.org/2000/svg" viewBox="0 0 96 96" role="img" aria-labelledby="title desc">
  <title id="title">MedilQ logo</title>
  <desc id="desc">A professional medical logo with a cross, capsule, and MedilQ initials.</desc>
  <defs>
    <linearGradient id="bg" x1="16" y1="10" x2="82" y2="86" gradientUnits="userSpaceOnUse">
      <stop stop-color="#10b981"/>
      <stop offset="1" stop-color="#08775d"/>
    </linearGradient>
    <linearGradient id="capsule" x1="27" y1="68" x2="71" y2="24" gradientUnits="userSpaceOnUse">
      <stop stop-color="#dffaf1"/>
      <stop offset=".52" stop-color="#ffffff"/>
      <stop offset="1" stop-color="#c9f3e7"/>
    </linearGradient>
    <filter id="shadow" x="-20%" y="-20%" width="140%" height="140%">
      <feDropShadow dx="0" dy="8" stdDeviation="7" flood-color="#052f2a" flood-opacity=".22"/>
    </filter>
  </defs>
  <rect x="6" y="6" width="84" height="84" rx="22" fill="url(#bg)"/>
  <g filter="url(#shadow)">
    <path d="M34 58 58 34c6-6 15-6 21 0s6 15 0 21L55 79c-6 6-15 6-21 0s-6-15 0-21Z" fill="url(#capsule)"/>
    <path d="M46 46 67 67" fill="none" stroke="#0f9f72" stroke-width="5" stroke-linecap="round"/>
    <rect x="23" y="21" width="32" height="32" rx="8" fill="#ffffff"/>
    <path d="M39 27v20M29 37h20" stroke="#0f9f72" stroke-width="7" stroke-linecap="round"/>
  </g>
  <path d="M21 73c9 6 21 10 35 8" fill="none" stroke="#b8f4de" stroke-width="4" stroke-linecap="round" opacity=".85"/>
</svg>
